<svg width="317" height="74" viewBox="0 0 317 74" fill="none" xmlns="http://www.w3.org/2000/svg">
<path d="M47.1418 58.3103L32.1201 73.3559L17.0343 58.2461L47.1418 58.3103Z" fill="white"/>
<path d="M31.9272 15.9883L36.6882 29.2196H27.1661L31.9272 15.9883Z" fill="white"/>
<path d="M105.473 36.6575C103.41 36.6575 101.674 35.9468 100.268 34.5256C98.8607 33.1044 98.1572 31.3199 98.1572 29.1722C98.1572 27.0246 98.8607 25.2401 100.268 23.8189C101.674 22.3976 103.41 21.687 105.473 21.687C107.537 21.687 109.272 22.3976 110.679 23.8189C112.086 25.2401 112.789 27.0246 112.789 29.1722C112.789 31.3199 112.086 33.1044 110.679 34.5256C109.272 35.9468 107.537 36.6575 105.473 36.6575Z" fill="white"/>
<path d="M128.489 34.6203C129.896 36.0416 131.663 36.7522 133.789 36.7522C135.915 36.7522 137.681 36.0416 139.088 34.6203C140.495 33.1675 141.198 31.3515 141.198 29.1722C141.198 26.993 140.495 25.1928 139.088 23.7715C137.681 22.3187 135.915 21.5923 133.789 21.5923C131.663 21.5923 129.896 22.3187 128.489 23.7715C127.082 25.1928 126.379 26.993 126.379 29.1722C126.379 31.3515 127.082 33.1675 128.489 34.6203Z" fill="white"/>
<path d="M280.776 34.6203C282.183 36.0416 283.95 36.7522 286.076 36.7522C288.202 36.7522 289.968 36.0416 291.375 34.6203C292.782 33.1675 293.486 31.3515 293.486 29.1722C293.486 26.993 292.782 25.1928 291.375 23.7715C289.968 22.3187 288.202 21.5923 286.076 21.5923C283.95 21.5923 282.183 22.3187 280.776 23.7715C279.37 25.1928 278.666 26.993 278.666 29.1722C278.666 31.3515 279.37 33.1675 280.776 34.6203Z" fill="white"/>
<path fill-rule="evenodd" clip-rule="evenodd" d="M316.472 0H0V58.3458H316.472V0ZM38.3686 34.3361L41.2372 41.0159H47.0524L34.7278 9.53662H29.1265L16.8037 41.0159H22.6659L25.4857 34.3361H38.3686ZM96.7034 38.0313C99.1108 40.4317 102.034 41.6318 105.473 41.6318C108.944 41.6318 111.867 40.4317 114.243 38.0313C116.65 35.631 117.854 32.678 117.854 29.1722C117.854 25.6665 116.65 22.7135 114.243 20.3131C111.867 17.9128 108.944 16.7127 105.473 16.7127C102.034 16.7127 99.1108 17.9128 96.7034 20.3131C94.296 22.7135 93.0923 25.6665 93.0923 29.1722C93.0923 32.678 94.296 35.631 96.7034 38.0313ZM70.2757 17.3285V41.0159H65.2108V22.2555H57.379V31.0672C57.379 34.8256 56.5661 37.4944 54.9403 39.0736C53.3145 40.6527 51.0009 41.3002 47.9995 41.0159V36.2311C49.4377 36.4838 50.5163 36.1837 51.2354 35.331C51.9545 34.4782 52.3141 32.978 52.3141 30.8304V17.3285H70.2757ZM91.8884 17.3285V22.2555H81.2427V41.0159H76.1778V17.3285H91.8884ZM134.586 16.7127C137.806 16.7127 140.558 17.9286 142.84 20.3605C145.122 22.7608 146.263 25.6981 146.263 29.1722C146.263 32.678 145.122 35.631 142.84 38.0313C140.558 40.4317 137.806 41.6318 134.586 41.6318C131.022 41.6318 128.286 40.3053 126.379 37.6523V48.8079H121.314V17.3285H126.379V20.7395C128.286 18.0549 131.022 16.7127 134.586 16.7127ZM170.603 17.3285H166.711L154.705 32.3464V17.3285H149.734V41.0159H153.626L165.632 25.9508V41.0159H170.603V17.3285ZM194.395 17.3285V22.2555H186.751V41.0159H181.686V22.2555H173.995V17.3285H194.395ZM216.815 41.0159H221.74V17.3285H216.581L209.781 28.2721L202.981 17.3285H197.822V41.0159H202.746V25.477L209.453 36.2785H210.062L216.815 25.4296V41.0159ZM244.568 17.3285H248.46V41.0159H243.489V25.9508L231.483 41.0159H227.591V17.3285H232.562V32.3464L244.568 17.3285ZM268.456 41.0159H274.505L263.813 28.9354L274.13 17.3285H267.94L258.842 27.7984V17.3285H253.777V41.0159H258.842V30.0724L268.456 41.0159ZM293.486 17.3285H298.551V41.0159H293.486V37.605C291.578 40.2895 288.843 41.6318 285.279 41.6318C282.058 41.6318 279.307 40.4317 277.025 38.0313C274.742 35.5994 273.601 32.6464 273.601 29.1722C273.601 25.6665 274.742 22.7135 277.025 20.3131C279.307 17.9128 282.058 16.7127 285.279 16.7127C288.843 16.7127 291.578 18.0392 293.486 20.6922V17.3285Z" fill="white"/>
</svg>
