<svg width="14" height="14" viewBox="0 0 14 14" fill="none" xmlns="http://www.w3.org/2000/svg">
<path d="M3.5 1.16663L1.75 3.49996V11.6666C1.75 11.976 1.87292 12.2728 2.09171 12.4916C2.3105 12.7104 2.60725 12.8333 2.91667 12.8333H11.0833C11.3928 12.8333 11.6895 12.7104 11.9083 12.4916C12.1271 12.2728 12.25 11.976 12.25 11.6666V3.49996L10.5 1.16663H3.5Z" stroke="#632895" stroke-width="1.16667" stroke-linecap="round" stroke-linejoin="round"/>
<path d="M1.75 3.5H12.25" stroke="#632895" stroke-width="1.16667" stroke-linecap="round" stroke-linejoin="round"/>
<path d="M9.33317 5.83337C9.33317 6.45221 9.08734 7.04571 8.64975 7.48329C8.21217 7.92087 7.61868 8.16671 6.99984 8.16671C6.381 8.16671 5.78751 7.92087 5.34992 7.48329C4.91234 7.04571 4.6665 6.45221 4.6665 5.83337" stroke="#632895" stroke-width="1.16667" stroke-linecap="round" stroke-linejoin="round"/>
</svg>
