<svg width="16" height="16" viewBox="0 0 16 16" fill="none" xmlns="http://www.w3.org/2000/svg">
<g clip-path="url(#clip0_31_2828)">
<path d="M14.6667 11.28V13.28C14.6675 13.4657 14.6295 13.6494 14.5551 13.8195C14.4807 13.9897 14.3716 14.1424 14.2348 14.2679C14.098 14.3934 13.9365 14.489 13.7606 14.5485C13.5847 14.6079 13.3983 14.63 13.2134 14.6133C11.162 14.3904 9.19141 13.6894 7.46008 12.5667C5.66331 11.4224 4.17523 9.85424 3.12675 7.99998C2.00844 6.28302 1.30542 4.32918 1.07341 2.29332C1.05577 2.10843 1.07695 1.9219 1.13558 1.74568C1.19422 1.56946 1.28903 1.40743 1.41393 1.26998C1.53882 1.13253 1.69106 1.02268 1.86088 0.947487C2.0307 0.872293 2.21436 0.833405 2.40008 0.833317H4.40008C4.72362 0.830132 5.03727 0.944702 5.28259 1.15567C5.5279 1.36664 5.68813 1.65961 5.73341 1.97998C5.81783 2.62003 5.97438 3.24847 6.20008 3.85332C6.28978 4.09193 6.30919 4.35126 6.25602 4.60057C6.20285 4.84988 6.07932 5.07872 5.90008 5.25998L5.39341 6.60665C6.34245 8.27568 7.72438 9.65761 9.39341 10.6067L10.2401 10.0733C10.4213 9.89407 10.6502 9.77055 10.8995 9.71738C11.1488 9.66421 11.4081 9.68362 11.6467 9.77332C12.2516 9.99902 12.88 10.1556 13.5201 10.24C13.803 10.2756 14.067 10.4011 14.2734 10.5979C14.4798 10.7946 14.6177 11.0524 14.6667 11.3333V11.28Z" stroke="#56B835" stroke-width="1.33333" stroke-linecap="round" stroke-linejoin="round"/>
</g>
<defs>
<clipPath id="clip0_31_2828">
<rect width="16" height="16" fill="white"/>
</clipPath>
</defs>
</svg>
